<svg xmlns="http://www.w3.org/2000/svg" viewBox="0 0 160 99.2">
  <rect width="160" height="99.2" rx="12" fill="#02070b"/>
  <defs>
    <linearGradient id="g" x1="34" x2="158" y1="78" y2="13" gradientUnits="userSpaceOnUse">
      <stop stop-color="#3786f7"/>
      <stop offset=".5" stop-color="#50d8fa"/>
      <stop offset="1" stop-color="#e9fdff"/>
    </linearGradient>
  </defs>
  <path fill="url(#g)" d="m23.5 57.1-9.6 15.8h9.9c2.5 0 6.1-1.6 8.2-5l7.3-10.8h-15.8zm32.2-53.7-21.6 34.1h16.6l21.2-34.7h-16.1l-.1.6zm41.9 9.2c-4.2 0-10.3 2.8-12.7 5.9l-11.2 18.8c-1.2 2.1-4.7 2.8-7.1 2.8h-56l-7.8 14.2 60.6.1-22.1 34.4h11.7c4.4 0 7.3-1.7 9.6-5l31.1-52.5c.9-1.4 4.8-3.9 8-3.9h47.4l8.5-14.8h-60zm-9.9 47.6-21.9 36h12.7l21.9-36h-12.7zm11-17.2-9.1 14.4h36.7c2.2 0 5.9-1.3 7.4-3.6l6.8-10.8h-41.8z"/>
</svg>
